<svg width="49" height="46" viewBox="0 0 49 46" fill="none" xmlns="http://www.w3.org/2000/svg">
<path d="M43.1667 7H45.1667C46.2667 7 47.1667 7.88 47.1667 9V43C47.1667 44.1 46.2667 45 45.1667 45H3.16669C2.04669 45 1.16669 44.1 1.16669 43V9C1.16669 7.88 2.04669 7 3.16669 7H35.1667" stroke="#4B5563" stroke-width="2" stroke-linecap="round" stroke-linejoin="round"/>
<path d="M25.1667 40.148V40.146C17.3467 42.886 8.78666 38.786 6.02666 30.966C3.26666 23.146 7.36666 14.586 15.1867 11.826C22.9867 9.06597 31.5467 13.166 34.3067 20.986C34.3067 21.006 34.3267 21.046 34.3267 21.086" stroke="#4B5563" stroke-width="2" stroke-linecap="round" stroke-linejoin="round"/>
<path d="M20.1667 21C18.8406 21 17.5688 21.5268 16.6312 22.4645C15.6935 23.4021 15.1667 24.6739 15.1667 26C15.1667 27.3261 15.6935 28.5979 16.6312 29.5355C17.5688 30.4732 18.8406 31 20.1667 31C21.4928 31 22.7645 30.4732 23.7022 29.5355C24.6399 28.5979 25.1667 27.3261 25.1667 26C25.1667 24.6739 24.6399 23.4021 23.7022 22.4645C22.7645 21.5268 21.4928 21 20.1667 21Z" stroke="#4B5563" stroke-width="2" stroke-linecap="round" stroke-linejoin="round"/>
<path d="M39.1667 11V24L33.6267 30.62" stroke="#4B5563" stroke-width="2" stroke-linecap="round" stroke-linejoin="round"/>
<path d="M39.1667 1C36.9467 1 35.1667 2.78 35.1667 5V9C35.1667 10.1 36.0467 11 37.1667 11H41.1667C42.2667 11 43.1667 10.1 43.1667 9V5C43.1667 2.78 41.3667 1 39.1667 1Z" stroke="#4B5563" stroke-width="2" stroke-linecap="round" stroke-linejoin="round"/>
<path d="M30.1667 30.02C30.9467 29.22 32.2067 29.22 32.9867 30.02L34.1667 31.2C34.9467 31.98 34.9467 33.24 34.1667 34.02L32.8467 35.34C32.0267 36.7 30.2467 37.14 28.8667 36.32C28.6667 36.2 28.4867 36.06 28.3267 35.92H28.3247C27.1647 34.7 27.2047 32.8 28.4047 31.64C28.4847 31.54 28.5847 31.46 28.6847 31.38L30.1667 30.02Z" stroke="#4B5563" stroke-width="2" stroke-linecap="round" stroke-linejoin="round"/>
<path d="M20.1667 25.5C20.4267 25.5 20.6667 25.72 20.6667 26C20.6667 26.26 20.4267 26.5 20.1667 26.5C19.8867 26.5 19.6667 26.26 19.6667 26C19.6667 25.72 19.8867 25.5 20.1667 25.5Z" stroke="#4B5563" stroke-width="2" stroke-linecap="round" stroke-linejoin="round"/>
</svg>
