<svg width="49" height="48" viewBox="0 0 49 48" fill="none" xmlns="http://www.w3.org/2000/svg">
<g clip-path="url(#clip0_152_23)">
<path d="M42.0003 27.8C45.1403 26.34 47.1003 23.16 47.0003 19.7C46.9203 14.48 42.6403 10.34 37.4403 10.42C37.3203 10.42 37.2003 10.42 37.0803 10.42C34.8003 5.81998 30.1003 2.93998 24.9803 2.95998V2.93998C18.0003 2.83998 12.1403 8.17998 11.6203 15.14C7.76034 14.28 3.96034 16.72 3.12034 20.56C3.00034 21 2.96034 21.48 2.94034 21.94C2.76034 25.04 4.88034 27.82 7.94034 28.504" stroke="#4F46E5" stroke-width="2" stroke-linecap="round" stroke-linejoin="round"/>
<path d="M15.0003 37C13.9394 37 12.922 37.4214 12.1719 38.1716C11.4217 38.9217 11.0003 39.9391 11.0003 41C11.0003 42.0609 11.4217 43.0783 12.1719 43.8284C12.922 44.5786 13.9394 45 15.0003 45C16.0612 45 17.0786 44.5786 17.8287 43.8284C18.5789 43.0783 19.0003 42.0609 19.0003 41C19.0003 39.9391 18.5789 38.9217 17.8287 38.1716C17.0786 37.4214 16.0612 37 15.0003 37Z" stroke="#4F46E5" stroke-width="2" stroke-linecap="round" stroke-linejoin="round"/>
<path d="M31.0003 33C29.9394 33 28.922 33.4214 28.1719 34.1716C27.4217 34.9217 27.0003 35.9391 27.0003 37C27.0003 38.0609 27.4217 39.0783 28.1719 39.8284C28.922 40.5786 29.9394 41 31.0003 41C32.0612 41 33.0786 40.5786 33.8287 39.8284C34.5789 39.0783 35.0003 38.0609 35.0003 37C35.0003 35.9391 34.5789 34.9217 33.8287 34.1716C33.0786 33.4214 32.0612 33 31.0003 33Z" stroke="#4F46E5" stroke-width="2" stroke-linecap="round" stroke-linejoin="round"/>
<path d="M35.0004 37V23.41C35.0004 22.29 34.1004 21.39 33.0004 21.39C32.8604 21.37 32.7404 21.39 32.6204 21.41L20.6203 23.66C19.6603 23.82 18.9803 24.66 18.9803 25.62V40.96" stroke="#4F46E5" stroke-width="2" stroke-linecap="round" stroke-linejoin="round"/>
</g>
<defs>
<clipPath id="clip0_152_23">
<rect width="48" height="48" fill="white" transform="translate(0.833313)"/>
</clipPath>
</defs>
</svg>
